<?xml version="1.0" encoding="UTF-8" standalone="no"?>
<!-- Created with Inkscape (http://www.inkscape.org/) -->

<svg
   xmlns:dc="http://purl.org/dc/elements/1.1/"
   xmlns:cc="http://creativecommons.org/ns#"
   xmlns:rdf="http://www.w3.org/1999/02/22-rdf-syntax-ns#"
   xmlns:svg="http://www.w3.org/2000/svg"
   xmlns="http://www.w3.org/2000/svg"
   xmlns:sodipodi="http://sodipodi.sourceforge.net/DTD/sodipodi-0.dtd"
   xmlns:inkscape="http://www.inkscape.org/namespaces/inkscape"
   width="744.09448"
   height="1052.3622"
   id="svg2"
   version="1.1"
   inkscape:version="0.48.2 r9819"
   sodipodi:docname="console_up.svg">
  <defs
     id="defs4" />
  <sodipodi:namedview
     id="base"
     pagecolor="#ffffff"
     bordercolor="#666666"
     borderopacity="1.0"
     inkscape:pageopacity="0.0"
     inkscape:pageshadow="2"
     inkscape:zoom="1.4"
     inkscape:cx="123.43556"
     inkscape:cy="768.92338"
     inkscape:document-units="mm"
     inkscape:current-layer="layer1"
     showgrid="true"
     units="mm"
     inkscape:window-width="1920"
     inkscape:window-height="1018"
     inkscape:window-x="-8"
     inkscape:window-y="-8"
     inkscape:window-maximized="1">
    <inkscape:grid
       type="xygrid"
       id="grid2985"
       units="mm"
       empspacing="5"
       visible="true"
       enabled="true"
       snapvisiblegridlinesonly="true" />
  </sodipodi:namedview>
  <metadata
     id="metadata7">
    <rdf:RDF>
      <cc:Work
         rdf:about="">
        <dc:format>image/svg+xml</dc:format>
        <dc:type
           rdf:resource="http://purl.org/dc/dcmitype/StillImage" />
        <dc:title></dc:title>
      </cc:Work>
    </rdf:RDF>
  </metadata>
  <g
     inkscape:label="Layer 1"
     inkscape:groupmode="layer"
     id="layer1">
    <rect
       style="fill:#ffffff;fill-opacity:1;stroke:#1a1a1a"
       id="rect3239"
       width="620.07874"
       height="407.48032"
       x="53.149605"
       y="77.952736" />
    <path
       sodipodi:type="arc"
       style="fill:#ffff00;fill-opacity:1;stroke:#1a1a1a"
       id="path3064"
       sodipodi:cx="124.01575"
       sodipodi:cy="283.46457"
       sodipodi:rx="10.629921"
       sodipodi:ry="10.629921"
       d="m 134.64567,283.46457 a 10.629921,10.629921 0 1 1 -21.25984,0 10.629921,10.629921 0 1 1 21.25984,0 z"
       transform="translate(106.29921,148.81887)" />
    <rect
       style="fill:#00ffff;fill-opacity:1;stroke:#1a1a1a"
       id="rect2987"
       width="347.24408"
       height="141.73228"
       x="124.01575"
       y="219.68501" />
    <path
       transform="translate(-35.433056,-28.346473)"
       sodipodi:type="arc"
       style="fill:#ffff00;fill-opacity:1;stroke:#1a1a1a"
       id="path3064-2"
       sodipodi:cx="124.01575"
       sodipodi:cy="283.46457"
       sodipodi:rx="10.629921"
       sodipodi:ry="10.629921"
       d="m 134.64567,283.46457 a 10.629921,10.629921 0 1 1 -21.25984,0 10.629921,10.629921 0 1 1 21.25984,0 z" />
    <path
       transform="translate(-35.433066,42.519668)"
       sodipodi:type="arc"
       style="fill:#ffff00;fill-opacity:1;stroke:#1a1a1a"
       id="path3064-1"
       sodipodi:cx="124.01575"
       sodipodi:cy="283.46457"
       sodipodi:rx="10.629921"
       sodipodi:ry="10.629921"
       d="m 134.64567,283.46457 a 10.629921,10.629921 0 1 1 -21.25984,0 10.629921,10.629921 0 1 1 21.25984,0 z" />
    <path
       transform="translate(382.67718,-28.346473)"
       sodipodi:type="arc"
       style="fill:#ffff00;fill-opacity:1;stroke:#1a1a1a"
       id="path3064-2-1"
       sodipodi:cx="124.01575"
       sodipodi:cy="283.46457"
       sodipodi:rx="10.629921"
       sodipodi:ry="10.629921"
       d="m 134.64567,283.46457 a 10.629921,10.629921 0 1 1 -21.25984,0 10.629921,10.629921 0 1 1 21.25984,0 z" />
    <path
       transform="translate(382.67717,42.519668)"
       sodipodi:type="arc"
       style="fill:#ffff00;fill-opacity:1;stroke:#1a1a1a"
       id="path3064-1-7"
       sodipodi:cx="124.01575"
       sodipodi:cy="283.46457"
       sodipodi:rx="10.629921"
       sodipodi:ry="10.629921"
       d="m 134.64567,283.46457 a 10.629921,10.629921 0 1 1 -21.25984,0 10.629921,10.629921 0 1 1 21.25984,0 z" />
    <path
       sodipodi:type="arc"
       style="fill:#ffff00;fill-opacity:1;stroke:#1a1a1a"
       id="path3064-4"
       sodipodi:cx="124.01575"
       sodipodi:cy="283.46457"
       sodipodi:rx="10.629921"
       sodipodi:ry="10.629921"
       d="m 134.64567,283.46457 a 10.629921,10.629921 0 1 1 -21.25984,0 10.629921,10.629921 0 1 1 21.25984,0 z"
       transform="translate(240.94489,148.81888)" />
    <path
       sodipodi:type="arc"
       style="fill:#ffff00;fill-opacity:1;stroke:#1a1a1a"
       id="path3064-22"
       sodipodi:cx="124.01575"
       sodipodi:cy="283.46457"
       sodipodi:rx="10.629921"
       sodipodi:ry="10.629921"
       d="m 134.64567,283.46457 a 10.629921,10.629921 0 1 1 -21.25984,0 10.629921,10.629921 0 1 1 21.25984,0 z"
       transform="translate(38.976384,-134.6457)" />
    <path
       sodipodi:type="arc"
       style="fill:#ffff00;fill-opacity:1;stroke:#1a1a1a"
       id="path3064-4-5"
       sodipodi:cx="124.01575"
       sodipodi:cy="283.46457"
       sodipodi:rx="10.629921"
       sodipodi:ry="10.629921"
       d="m 134.64567,283.46457 a 10.629921,10.629921 0 1 1 -21.25984,0 10.629921,10.629921 0 1 1 21.25984,0 z"
       transform="translate(304.72441,-134.64571)" />
    <path
       sodipodi:type="arc"
       style="fill:#ffff00;fill-opacity:1;stroke:#1a1a1a"
       id="path3064-22-1"
       sodipodi:cx="124.01575"
       sodipodi:cy="283.46457"
       sodipodi:rx="10.629921"
       sodipodi:ry="10.629921"
       d="m 134.64567,283.46457 a 10.629921,10.629921 0 1 1 -21.25984,0 10.629921,10.629921 0 1 1 21.25984,0 z"
       transform="translate(127.55905,-134.64571)" />
    <path
       sodipodi:type="arc"
       style="fill:#ffff00;fill-opacity:1;stroke:#1a1a1a"
       id="path3064-22-2"
       sodipodi:cx="124.01575"
       sodipodi:cy="283.46457"
       sodipodi:rx="10.629921"
       sodipodi:ry="10.629921"
       d="m 134.64567,283.46457 a 10.629921,10.629921 0 1 1 -21.25984,0 10.629921,10.629921 0 1 1 21.25984,0 z"
       transform="translate(216.14173,-134.64571)" />
    <path
       transform="translate(478.34645,-46.063024)"
       sodipodi:type="arc"
       style="fill:#ffaaaa;fill-opacity:1;stroke:#1a1a1a"
       id="path3064-2-4"
       sodipodi:cx="124.01575"
       sodipodi:cy="283.46457"
       sodipodi:rx="10.629921"
       sodipodi:ry="10.629921"
       d="m 134.64567,283.46457 a 10.629921,10.629921 0 1 1 -21.25984,0 10.629921,10.629921 0 1 1 21.25984,0 z" />
    <path
       transform="translate(478.34645,60.236195)"
       sodipodi:type="arc"
       style="fill:#ffaaaa;fill-opacity:1;stroke:#1a1a1a"
       id="path3064-1-2"
       sodipodi:cx="124.01575"
       sodipodi:cy="283.46457"
       sodipodi:rx="10.629921"
       sodipodi:ry="10.629921"
       d="m 134.64567,283.46457 a 10.629921,10.629921 0 1 1 -21.25984,0 10.629921,10.629921 0 1 1 21.25984,0 z" />
    <text
       xml:space="preserve"
       style="font-size:8px;font-style:normal;font-weight:normal;text-align:center;line-height:125%;letter-spacing:0px;word-spacing:0px;text-anchor:middle;fill:#000000;fill-opacity:1;stroke:none;font-family:Sans"
       x="88.58268"
       y="288.55112"
       id="text3322"
       sodipodi:linespacing="125%"><tspan
         sodipodi:role="line"
         id="tspan3324"
         x="88.58268"
         y="288.55112"
         style="font-size:14px;font-style:normal;font-variant:normal;font-weight:normal;font-stretch:normal;font-family:AA Zuehlke;-inkscape-font-specification:AA Zuehlke">Coffee</tspan><tspan
         sodipodi:role="line"
         x="88.58268"
         y="306.05112"
         id="tspan3326"
         style="font-size:14px;font-style:normal;font-variant:normal;font-weight:normal;font-stretch:normal;font-family:AA Zuehlke;-inkscape-font-specification:AA Zuehlke">select</tspan></text>
    <text
       xml:space="preserve"
       style="font-size:8px;font-style:normal;font-weight:normal;text-align:center;line-height:125%;letter-spacing:0px;word-spacing:0px;text-anchor:middle;fill:#000000;fill-opacity:1;stroke:none;font-family:Sans"
       x="507.77957"
       y="286.55112"
       id="text3322-7"
       sodipodi:linespacing="125%"><tspan
         sodipodi:role="line"
         id="tspan3324-2"
         x="507.77957"
         y="286.55112"
         style="font-size:14px;font-style:normal;font-variant:normal;font-weight:normal;font-stretch:normal;font-family:AA Zuehlke;-inkscape-font-specification:AA Zuehlke">Volume</tspan><tspan
         sodipodi:role="line"
         x="507.77957"
         y="304.05112"
         id="tspan3326-6"
         style="font-size:14px;font-style:normal;font-variant:normal;font-weight:normal;font-stretch:normal;font-family:AA Zuehlke;-inkscape-font-specification:AA Zuehlke">select</tspan></text>
    <path
       style="fill:none;stroke:#000000;stroke-width:3.54330707;stroke-linecap:butt;stroke-linejoin:miter;stroke-miterlimit:4;stroke-opacity:1;stroke-dasharray:none"
       d="m 177.16535,449.99998 c 0,0 10.62992,0 10.62992,-35.43308 l -35.43306,0 c 0,14.17323 -0.0308,35.53594 10.62992,35.43308 z"
       id="path3374"
       inkscape:connector-curvature="0"
       sodipodi:nodetypes="cccc" />
    <path
       style="fill:none;stroke:#000000;stroke-width:3.54330707;stroke-linecap:butt;stroke-linejoin:miter;stroke-miterlimit:4;stroke-opacity:1;stroke-dasharray:none"
       d="m 187.79527,421.65352 10.62992,0 c -0.38873,6.03062 -3.54331,17.71654 -7.08661,17.71653 l -7.08661,0"
       id="path3378"
       inkscape:connector-curvature="0"
       sodipodi:nodetypes="cccc" />
    <path
       style="fill:none;stroke:#000000;stroke-width:3.54330707;stroke-linecap:butt;stroke-linejoin:miter;stroke-miterlimit:4;stroke-opacity:1;stroke-dasharray:none"
       d="m 420.11023,450.62991 c 0,0 10.62992,0 10.62992,-35.43308 l -35.43306,0 c 0,14.17323 -0.0308,35.53594 10.62992,35.43308 z"
       id="path3374-1"
       inkscape:connector-curvature="0"
       sodipodi:nodetypes="cccc" />
    <path
       style="fill:none;stroke:#000000;stroke-width:3.54330707;stroke-linecap:butt;stroke-linejoin:miter;stroke-miterlimit:4;stroke-opacity:1;stroke-dasharray:none"
       d="m 430.74015,422.28345 10.62992,0 c -0.38873,6.03062 -3.54331,17.71654 -7.08661,17.71653 l -7.08661,0"
       id="path3378-6"
       inkscape:connector-curvature="0"
       sodipodi:nodetypes="cccc" />
    <path
       style="fill:none;stroke:#000000;stroke-width:3.54330707;stroke-linecap:butt;stroke-linejoin:miter;stroke-miterlimit:4;stroke-opacity:1;stroke-dasharray:none"
       d="m 475.25984,450.62991 c 0,0 10.62992,0 10.62992,-35.43308 l -35.43306,0 c 0,14.17323 -0.0308,35.53594 10.62992,35.43308 z"
       id="path3374-5"
       inkscape:connector-curvature="0"
       sodipodi:nodetypes="cccc" />
    <path
       style="fill:none;stroke:#000000;stroke-width:3.54330707;stroke-linecap:butt;stroke-linejoin:miter;stroke-miterlimit:4;stroke-opacity:1;stroke-dasharray:none"
       d="m 485.88976,422.28345 10.62992,0 c -0.38873,6.03062 -3.54331,17.71654 -7.08661,17.71653 l -7.08661,0"
       id="path3378-7"
       inkscape:connector-curvature="0"
       sodipodi:nodetypes="cccc" />
    <text
       xml:space="preserve"
       style="font-size:8px;font-style:normal;font-weight:normal;line-height:125%;letter-spacing:0px;word-spacing:0px;fill:#000000;fill-opacity:1;stroke:none;font-family:Sans"
       x="136.01575"
       y="184.25194"
       id="text4196"
       sodipodi:linespacing="125%"><tspan
         sodipodi:role="line"
         id="tspan4198"
         x="136.01575"
         y="184.25194"
         style="font-size:18px;font-style:normal;font-variant:normal;font-weight:normal;font-stretch:normal;font-family:AA Zuehlke;-inkscape-font-specification:AA Zuehlke">I like it!</tspan></text>
    <text
       xml:space="preserve"
       style="font-size:8px;font-style:normal;font-weight:normal;line-height:125%;letter-spacing:0px;word-spacing:0px;fill:#000000;fill-opacity:1;stroke:none;font-family:Sans"
       x="230.31494"
       y="184.25194"
       id="text4196-1"
       sodipodi:linespacing="125%"><tspan
         sodipodi:role="line"
         id="tspan4198-7"
         x="230.31494"
         y="184.25194"
         style="font-size:18px;font-style:normal;font-variant:normal;font-weight:normal;font-stretch:normal;font-family:AA Zuehlke;-inkscape-font-specification:AA Zuehlke">Panic</tspan></text>
    <text
       xml:space="preserve"
       style="font-size:8px;font-style:normal;font-weight:normal;line-height:125%;letter-spacing:0px;word-spacing:0px;fill:#000000;fill-opacity:1;stroke:none;font-family:Sans"
       x="330.61417"
       y="184.25194"
       id="text4196-4"
       sodipodi:linespacing="125%"><tspan
         sodipodi:role="line"
         id="tspan4198-0"
         x="330.61417"
         y="184.25194"
         style="font-size:18px;font-style:normal;font-variant:normal;font-weight:normal;font-stretch:normal;font-family:AA Zuehlke;-inkscape-font-specification:AA Zuehlke">F1</tspan></text>
    <text
       xml:space="preserve"
       style="font-size:8px;font-style:normal;font-weight:normal;line-height:125%;letter-spacing:0px;word-spacing:0px;fill:#000000;fill-opacity:1;stroke:none;font-family:Sans"
       x="419.19687"
       y="184.25194"
       id="text4196-4-9"
       sodipodi:linespacing="125%"><tspan
         sodipodi:role="line"
         id="tspan4198-0-4"
         x="419.19687"
         y="184.25194"
         style="font-size:18px;font-style:normal;font-variant:normal;font-weight:normal;font-stretch:normal;font-family:AA Zuehlke;-inkscape-font-specification:AA Zuehlke">F2</tspan></text>
    <text
       xml:space="preserve"
       style="font-size:8px;font-style:normal;font-weight:normal;line-height:125%;letter-spacing:0px;word-spacing:0px;fill:#000000;fill-opacity:1;stroke:none;font-family:Sans"
       x="566.92914"
       y="290.55115"
       id="text4196-4-9-8"
       sodipodi:linespacing="125%"><tspan
         sodipodi:role="line"
         id="tspan4198-0-4-8"
         x="566.92914"
         y="290.55115"
         style="font-size:18px;font-style:normal;font-variant:normal;font-weight:normal;font-stretch:normal;font-family:AA Zuehlke;-inkscape-font-specification:AA Zuehlke">Analog A</tspan></text>
    <text
       xml:space="preserve"
       style="font-size:8px;font-style:normal;font-weight:normal;line-height:125%;letter-spacing:0px;word-spacing:0px;fill:#000000;fill-opacity:1;stroke:none;font-family:Sans"
       x="570.92914"
       y="397.13376"
       id="text4196-4-9-8-2"
       sodipodi:linespacing="125%"><tspan
         sodipodi:role="line"
         id="tspan4198-0-4-8-4"
         x="570.92914"
         y="397.13376"
         style="font-size:18px;font-style:normal;font-variant:normal;font-weight:normal;font-stretch:normal;font-family:AA Zuehlke;-inkscape-font-specification:AA Zuehlke">Analog B</tspan></text>
    <text
       xml:space="preserve"
       style="font-size:8px;font-style:normal;font-weight:normal;line-height:125%;letter-spacing:0px;word-spacing:0px;fill:#ff7f2a;fill-opacity:1;stroke:none;font-family:Sans"
       x="460.62991"
       y="113.3858"
       id="text3132"
       sodipodi:linespacing="125%"><tspan
         sodipodi:role="line"
         id="tspan3134"
         x="460.62991"
         y="113.3858"
         style="font-size:28px;font-style:normal;font-variant:normal;font-weight:bold;font-stretch:normal;fill:#ff7f2a;font-family:AA Zuehlke;-inkscape-font-specification:AA Zuehlke Bold">Coffee</tspan><tspan
         sodipodi:role="line"
         x="460.62991"
         y="148.3858"
         id="tspan3136"
         style="font-size:28px;font-style:normal;font-variant:normal;font-weight:bold;font-stretch:normal;fill:#ff7f2a;font-family:AA Zuehlke;-inkscape-font-specification:AA Zuehlke Bold">      Driven</tspan><tspan
         sodipodi:role="line"
         x="460.62991"
         y="183.3858"
         id="tspan3138"
         style="font-size:28px;font-style:normal;font-variant:normal;font-weight:bold;font-stretch:normal;fill:#ff7f2a;font-family:AA Zuehlke;-inkscape-font-specification:AA Zuehlke Bold">             Hacking</tspan></text>
    <rect
       style="fill:#00ffff;fill-opacity:1;stroke:#1a1a1a"
       id="rect2987-4"
       width="347.24408"
       height="141.73228"
       x="124.01575"
       y="219.68503" />
    <path
       transform="translate(-35.433063,-28.346465)"
       sodipodi:type="arc"
       style="fill:#ffff00;fill-opacity:1;stroke:#1a1a1a"
       id="path3064-2-2"
       sodipodi:cx="124.01575"
       sodipodi:cy="283.46457"
       sodipodi:rx="10.629921"
       sodipodi:ry="10.629921"
       d="m 134.64567,283.46457 a 10.629921,10.629921 0 1 1 -21.25984,0 10.629921,10.629921 0 1 1 21.25984,0 z" />
    <path
       transform="translate(-35.433073,42.519673)"
       sodipodi:type="arc"
       style="fill:#ffff00;fill-opacity:1;stroke:#1a1a1a"
       id="path3064-1-0"
       sodipodi:cx="124.01575"
       sodipodi:cy="283.46457"
       sodipodi:rx="10.629921"
       sodipodi:ry="10.629921"
       d="m 134.64567,283.46457 a 10.629921,10.629921 0 1 1 -21.25984,0 10.629921,10.629921 0 1 1 21.25984,0 z" />
    <path
       transform="translate(382.67719,-28.346465)"
       sodipodi:type="arc"
       style="fill:#ffff00;fill-opacity:1;stroke:#1a1a1a"
       id="path3064-2-1-9"
       sodipodi:cx="124.01575"
       sodipodi:cy="283.46457"
       sodipodi:rx="10.629921"
       sodipodi:ry="10.629921"
       d="m 134.64567,283.46457 a 10.629921,10.629921 0 1 1 -21.25984,0 10.629921,10.629921 0 1 1 21.25984,0 z" />
    <path
       transform="translate(382.67718,42.519673)"
       sodipodi:type="arc"
       style="fill:#ffff00;fill-opacity:1;stroke:#1a1a1a"
       id="path3064-1-7-7"
       sodipodi:cx="124.01575"
       sodipodi:cy="283.46457"
       sodipodi:rx="10.629921"
       sodipodi:ry="10.629921"
       d="m 134.64567,283.46457 a 10.629921,10.629921 0 1 1 -21.25984,0 10.629921,10.629921 0 1 1 21.25984,0 z" />
    <path
       sodipodi:type="arc"
       style="fill:#ffff00;fill-opacity:1;stroke:#1a1a1a"
       id="path3064-22-7"
       sodipodi:cx="124.01575"
       sodipodi:cy="283.46457"
       sodipodi:rx="10.629921"
       sodipodi:ry="10.629921"
       d="m 134.64567,283.46457 a 10.629921,10.629921 0 1 1 -21.25984,0 10.629921,10.629921 0 1 1 21.25984,0 z"
       transform="translate(38.976377,-134.64569)" />
    <path
       sodipodi:type="arc"
       style="fill:#ffff00;fill-opacity:1;stroke:#1a1a1a"
       id="path3064-4-5-2"
       sodipodi:cx="124.01575"
       sodipodi:cy="283.46457"
       sodipodi:rx="10.629921"
       sodipodi:ry="10.629921"
       d="m 134.64567,283.46457 a 10.629921,10.629921 0 1 1 -21.25984,0 10.629921,10.629921 0 1 1 21.25984,0 z"
       transform="translate(304.72441,-134.6457)" />
    <path
       sodipodi:type="arc"
       style="fill:#ffff00;fill-opacity:1;stroke:#1a1a1a"
       id="path3064-22-1-6"
       sodipodi:cx="124.01575"
       sodipodi:cy="283.46457"
       sodipodi:rx="10.629921"
       sodipodi:ry="10.629921"
       d="m 134.64567,283.46457 a 10.629921,10.629921 0 1 1 -21.25984,0 10.629921,10.629921 0 1 1 21.25984,0 z"
       transform="translate(127.55905,-134.6457)" />
    <path
       sodipodi:type="arc"
       style="fill:#ffff00;fill-opacity:1;stroke:#1a1a1a"
       id="path3064-22-2-0"
       sodipodi:cx="124.01575"
       sodipodi:cy="283.46457"
       sodipodi:rx="10.629921"
       sodipodi:ry="10.629921"
       d="m 134.64567,283.46457 a 10.629921,10.629921 0 1 1 -21.25984,0 10.629921,10.629921 0 1 1 21.25984,0 z"
       transform="translate(216.14173,-134.6457)" />
  </g>
</svg>
