<?xml version="1.0" encoding="UTF-8" standalone="no"?>
<!-- Created with Inkscape (http://www.inkscape.org/) -->

<svg
   xmlns:dc="http://purl.org/dc/elements/1.1/"
   xmlns:cc="http://creativecommons.org/ns#"
   xmlns:rdf="http://www.w3.org/1999/02/22-rdf-syntax-ns#"
   xmlns:svg="http://www.w3.org/2000/svg"
   xmlns="http://www.w3.org/2000/svg"
   xmlns:sodipodi="http://sodipodi.sourceforge.net/DTD/sodipodi-0.dtd"
   xmlns:inkscape="http://www.inkscape.org/namespaces/inkscape"
   width="1052.3622"
   height="744.09448"
   id="svg2"
   version="1.1"
   inkscape:version="0.48.2 r9819"
   sodipodi:docname="case.svg">
  <title
     id="title2985">Intel Galileo support plate</title>
  <defs
     id="defs4" />
  <sodipodi:namedview
     id="base"
     pagecolor="#ffffff"
     bordercolor="#666666"
     borderopacity="1.0"
     inkscape:pageopacity="0.0"
     inkscape:pageshadow="2"
     inkscape:zoom="7.9195959"
     inkscape:cx="461.44101"
     inkscape:cy="252.97879"
     inkscape:document-units="mm"
     inkscape:current-layer="layer1"
     showgrid="true"
     units="mm"
     inkscape:window-width="1920"
     inkscape:window-height="1018"
     inkscape:window-x="-8"
     inkscape:window-y="-8"
     inkscape:window-maximized="1">
    <inkscape:grid
       type="xygrid"
       id="grid2987"
       units="mm"
       empspacing="5"
       visible="true"
       enabled="true"
       snapvisiblegridlinesonly="true" />
  </sodipodi:namedview>
  <metadata
     id="metadata7">
    <rdf:RDF>
      <cc:Work
         rdf:about="">
        <dc:format>image/svg+xml</dc:format>
        <dc:type
           rdf:resource="http://purl.org/dc/dcmitype/StillImage" />
        <dc:title>Intel Galileo support plate</dc:title>
        <cc:license
           rdf:resource="" />
      </cc:Work>
    </rdf:RDF>
  </metadata>
  <g
     inkscape:label="Layer 1"
     inkscape:groupmode="layer"
     id="layer1"
     transform="translate(0,-308.26769)">
    <rect
       style="fill:#f2f2f2;fill-opacity:1;stroke:#1a1a1a"
       id="rect2989"
       width="421.65353"
       height="255.11813"
       x="74.409447"
       y="418.11023"
       transform="translate(0,308.26769)" />
    <path
       sodipodi:type="arc"
       style="fill:#ffffff;fill-opacity:1;stroke:#1a1a1a"
       id="path2995"
       sodipodi:cx="35.433071"
       sodipodi:cy="637.79529"
       sodipodi:rx="7.0866141"
       sodipodi:ry="7.0866141"
       d="m 42.519685,637.79529 a 7.0866141,7.0866141 0 1 1 -14.173228,0 7.0866141,7.0866141 0 1 1 14.173228,0 z"
       transform="translate(53.149606,329.52751)" />
    <path
       style="fill:none;stroke:#000000;stroke-width:1px;stroke-linecap:butt;stroke-linejoin:miter;stroke-opacity:1"
       d="m 88.582677,985.03932 0,-35.43308"
       id="path2991"
       inkscape:connector-curvature="0" />
    <path
       style="fill:none;stroke:#000000;stroke-width:1px;stroke-linecap:butt;stroke-linejoin:miter;stroke-opacity:1"
       d="m 70.866141,967.32278 35.433079,0"
       id="path2993"
       inkscape:connector-curvature="0" />
    <path
       transform="translate(53.149605,102.75584)"
       sodipodi:type="arc"
       style="fill:#ffffff;fill-opacity:1;stroke:#1a1a1a"
       id="path2995-1"
       sodipodi:cx="35.433071"
       sodipodi:cy="637.79529"
       sodipodi:rx="7.0866141"
       sodipodi:ry="7.0866141"
       d="m 42.519685,637.79529 a 7.0866141,7.0866141 0 1 1 -14.173228,0 7.0866141,7.0866141 0 1 1 14.173228,0 z" />
    <path
       style="fill:none;stroke:#000000;stroke-width:1px;stroke-linecap:butt;stroke-linejoin:miter;stroke-opacity:1"
       d="m 88.582672,758.26765 0,-35.43308"
       id="path2991-7"
       inkscape:connector-curvature="0" />
    <path
       style="fill:none;stroke:#000000;stroke-width:1px;stroke-linecap:butt;stroke-linejoin:miter;stroke-opacity:1"
       d="m 70.86614,740.55111 35.43308,0"
       id="path2993-4"
       inkscape:connector-curvature="0" />
    <path
       transform="translate(396.85039,329.52753)"
       sodipodi:type="arc"
       style="fill:#ffffff;fill-opacity:1;stroke:#1a1a1a"
       id="path2995-0"
       sodipodi:cx="35.433071"
       sodipodi:cy="637.79529"
       sodipodi:rx="7.0866141"
       sodipodi:ry="7.0866141"
       d="m 42.519685,637.79529 c 0,3.91383 -3.172785,7.08661 -7.086614,7.08661 -3.913829,0 -7.086614,-3.17278 -7.086614,-7.08661 0,-3.91383 3.172785,-7.08662 7.086614,-7.08662 3.913829,0 7.086614,3.17279 7.086614,7.08662 z" />
    <path
       style="fill:none;stroke:#000000;stroke-width:1px;stroke-linecap:butt;stroke-linejoin:miter;stroke-opacity:1"
       d="m 432.28346,985.03935 0,-35.43309"
       id="path2991-9"
       inkscape:connector-curvature="0" />
    <path
       style="fill:none;stroke:#000000;stroke-width:1px;stroke-linecap:butt;stroke-linejoin:miter;stroke-opacity:1"
       d="m 414.56693,967.3228 35.43307,0"
       id="path2993-48"
       inkscape:connector-curvature="0" />
    <path
       transform="translate(396.85039,102.75586)"
       sodipodi:type="arc"
       style="fill:#ffffff;fill-opacity:1;stroke:#1a1a1a"
       id="path2995-8"
       sodipodi:cx="35.433071"
       sodipodi:cy="637.79529"
       sodipodi:rx="7.0866141"
       sodipodi:ry="7.0866141"
       d="m 42.519685,637.79529 c 0,3.91383 -3.172785,7.08661 -7.086614,7.08661 -3.913829,0 -7.086614,-3.17278 -7.086614,-7.08661 0,-3.91383 3.172785,-7.08662 7.086614,-7.08662 3.913829,0 7.086614,3.17279 7.086614,7.08662 z" />
    <path
       style="fill:none;stroke:#000000;stroke-width:1px;stroke-linecap:butt;stroke-linejoin:miter;stroke-opacity:1"
       d="m 432.28346,758.26767 0,-35.43308"
       id="path2991-2"
       inkscape:connector-curvature="0" />
    <path
       style="fill:none;stroke:#000000;stroke-width:1px;stroke-linecap:butt;stroke-linejoin:miter;stroke-opacity:1"
       d="m 414.56693,740.55113 35.43307,0"
       id="path2993-45"
       inkscape:connector-curvature="0" />
    <path
       transform="translate(389.76378,301.18108)"
       sodipodi:type="arc"
       style="fill:#ffffff;fill-opacity:1;stroke:#1a1a1a"
       id="path2995-0-5"
       sodipodi:cx="35.433071"
       sodipodi:cy="637.79529"
       sodipodi:rx="7.0866141"
       sodipodi:ry="7.0866141"
       d="m 42.519685,637.79529 a 7.0866141,7.0866141 0 1 1 -14.173228,0 7.0866141,7.0866141 0 1 1 14.173228,0 z" />
    <path
       style="fill:none;stroke:#000000;stroke-width:1px;stroke-linecap:butt;stroke-linejoin:miter;stroke-opacity:1"
       d="m 425.19685,956.6929 0,-35.43309"
       id="path2991-9-1"
       inkscape:connector-curvature="0" />
    <path
       style="fill:none;stroke:#000000;stroke-width:1px;stroke-linecap:butt;stroke-linejoin:miter;stroke-opacity:1"
       d="m 407.48032,938.97635 35.43307,0"
       id="path2993-48-7"
       inkscape:connector-curvature="0" />
    <path
       transform="translate(389.76378,141.73226)"
       sodipodi:type="arc"
       style="fill:#ffffff;fill-opacity:1;stroke:#1a1a1a"
       id="path2995-0-1"
       sodipodi:cx="35.433071"
       sodipodi:cy="637.79529"
       sodipodi:rx="7.0866141"
       sodipodi:ry="7.0866141"
       d="m 42.519685,637.79529 a 7.0866141,7.0866141 0 1 1 -14.173228,0 7.0866141,7.0866141 0 1 1 14.173228,0 z" />
    <path
       style="fill:none;stroke:#000000;stroke-width:1px;stroke-linecap:butt;stroke-linejoin:miter;stroke-opacity:1"
       d="m 425.19685,797.24408 0,-35.43309"
       id="path2991-9-15"
       inkscape:connector-curvature="0" />
    <path
       style="fill:none;stroke:#000000;stroke-width:1px;stroke-linecap:butt;stroke-linejoin:miter;stroke-opacity:1"
       d="m 407.48032,779.52753 35.43307,0"
       id="path2993-48-2"
       inkscape:connector-curvature="0" />
    <path
       transform="matrix(1.9999996,0,0,2.0000002,400.39371,-506.69312)"
       sodipodi:type="arc"
       style="fill:#ffffff;fill-opacity:1;stroke:#1a1a1a"
       id="path2995-0-5-7"
       sodipodi:cx="35.433071"
       sodipodi:cy="637.79529"
       sodipodi:rx="7.0866141"
       sodipodi:ry="7.0866141"
       d="m 42.519685,637.79529 a 7.0866141,7.0866141 0 1 1 -14.173228,0 7.0866141,7.0866141 0 1 1 14.173228,0 z" />
    <path
       style="fill:none;stroke:#000000;stroke-width:1px;stroke-linecap:butt;stroke-linejoin:miter;stroke-opacity:1"
       d="m 471.25984,786.61416 0,-35.43309"
       id="path2991-9-1-6"
       inkscape:connector-curvature="0" />
    <path
       style="fill:none;stroke:#000000;stroke-width:1px;stroke-linecap:butt;stroke-linejoin:miter;stroke-opacity:1"
       d="m 453.54331,768.89761 35.43307,0"
       id="path2993-48-7-1"
       inkscape:connector-curvature="0" />
    <path
       transform="translate(272.83465,219.68499)"
       sodipodi:type="arc"
       style="fill:#ffffff;fill-opacity:1;stroke:#1a1a1a"
       id="path2995-0-9"
       sodipodi:cx="35.433071"
       sodipodi:cy="637.79529"
       sodipodi:rx="7.0866141"
       sodipodi:ry="7.0866141"
       d="m 42.519685,637.79529 a 7.0866141,7.0866141 0 1 1 -14.173228,0 7.0866141,7.0866141 0 1 1 14.173228,0 z" />
    <path
       style="fill:none;stroke:#000000;stroke-width:1px;stroke-linecap:butt;stroke-linejoin:miter;stroke-opacity:1"
       d="m 308.26772,875.19677 0,-35.43305"
       id="path2991-9-8"
       inkscape:connector-curvature="0" />
    <path
       style="fill:none;stroke:#000000;stroke-width:1px;stroke-linecap:butt;stroke-linejoin:miter;stroke-opacity:1"
       d="m 290.55119,857.48027 35.43307,0"
       id="path2993-48-8"
       inkscape:connector-curvature="0" />
  </g>
</svg>
