<?xml version="1.0" encoding="UTF-8" standalone="no"?>
<!-- Created with Inkscape (http://www.inkscape.org/) -->

<svg
   xmlns:dc="http://purl.org/dc/elements/1.1/"
   xmlns:cc="http://creativecommons.org/ns#"
   xmlns:rdf="http://www.w3.org/1999/02/22-rdf-syntax-ns#"
   xmlns:svg="http://www.w3.org/2000/svg"
   xmlns="http://www.w3.org/2000/svg"
   xmlns:sodipodi="http://sodipodi.sourceforge.net/DTD/sodipodi-0.dtd"
   xmlns:inkscape="http://www.inkscape.org/namespaces/inkscape"
   width="1052.3622"
   height="744.09448"
   id="svg2"
   version="1.1"
   inkscape:version="0.48.2 r9819"
   sodipodi:docname="case.svg">
  <title
     id="title2985">Intel Galileo support plate</title>
  <defs
     id="defs4" />
  <sodipodi:namedview
     id="base"
     pagecolor="#ffffff"
     bordercolor="#666666"
     borderopacity="1.0"
     inkscape:pageopacity="0.0"
     inkscape:pageshadow="2"
     inkscape:zoom="0.98994949"
     inkscape:cx="-142.30171"
     inkscape:cy="303.36906"
     inkscape:document-units="mm"
     inkscape:current-layer="layer1"
     showgrid="true"
     units="mm"
     inkscape:window-width="1920"
     inkscape:window-height="1018"
     inkscape:window-x="-8"
     inkscape:window-y="-8"
     inkscape:window-maximized="1">
    <inkscape:grid
       type="xygrid"
       id="grid2987"
       units="mm"
       empspacing="5"
       visible="true"
       enabled="true"
       snapvisiblegridlinesonly="true" />
  </sodipodi:namedview>
  <metadata
     id="metadata7">
    <rdf:RDF>
      <cc:Work
         rdf:about="">
        <dc:format>image/svg+xml</dc:format>
        <dc:type
           rdf:resource="http://purl.org/dc/dcmitype/StillImage" />
        <dc:title>Intel Galileo support plate</dc:title>
        <cc:license
           rdf:resource="" />
      </cc:Work>
    </rdf:RDF>
  </metadata>
  <g
     inkscape:label="Layer 1"
     inkscape:groupmode="layer"
     id="layer1"
     transform="translate(0,-308.26769)">
    <rect
       style="fill:#f2f2f2;fill-opacity:1;stroke:#1a1a1a"
       id="rect2989"
       width="372.04724"
       height="545.66931"
       x="70.866142"
       y="435.82675"
       ry="0" />
    <path
       sodipodi:type="arc"
       style="fill:#ffffff;fill-opacity:1;stroke:#1a1a1a"
       id="path2995"
       sodipodi:cx="35.433071"
       sodipodi:cy="637.79529"
       sodipodi:rx="7.0866141"
       sodipodi:ry="7.0866141"
       d="m 42.519685,637.79529 a 7.0866141,7.0866141 0 1 1 -14.173228,0 7.0866141,7.0866141 0 1 1 14.173228,0 z"
       transform="translate(49.606302,81.495999)" />
    <path
       style="fill:none;stroke:#000000;stroke-width:1px;stroke-linecap:butt;stroke-linejoin:miter;stroke-opacity:1"
       d="m 85.039373,737.00781 0,-35.43308"
       id="path2991"
       inkscape:connector-curvature="0" />
    <path
       style="fill:none;stroke:#000000;stroke-width:1px;stroke-linecap:butt;stroke-linejoin:miter;stroke-opacity:1"
       d="m 67.322837,719.29127 35.433073,0"
       id="path2993"
       inkscape:connector-curvature="0" />
    <path
       transform="translate(49.606301,-145.27567)"
       sodipodi:type="arc"
       style="fill:#ffffff;fill-opacity:1;stroke:#1a1a1a"
       id="path2995-1"
       sodipodi:cx="35.433071"
       sodipodi:cy="637.79529"
       sodipodi:rx="7.0866141"
       sodipodi:ry="7.0866141"
       d="m 42.519685,637.79529 a 7.0866141,7.0866141 0 1 1 -14.173228,0 7.0866141,7.0866141 0 1 1 14.173228,0 z" />
    <path
       style="fill:none;stroke:#000000;stroke-width:1px;stroke-linecap:butt;stroke-linejoin:miter;stroke-opacity:1"
       d="m 85.039368,510.23614 0,-35.43308"
       id="path2991-7"
       inkscape:connector-curvature="0" />
    <path
       style="fill:none;stroke:#000000;stroke-width:1px;stroke-linecap:butt;stroke-linejoin:miter;stroke-opacity:1"
       d="m 67.322836,492.5196 35.433074,0"
       id="path2993-4"
       inkscape:connector-curvature="0" />
    <path
       transform="translate(393.30708,81.496019)"
       sodipodi:type="arc"
       style="fill:#ffffff;fill-opacity:1;stroke:#1a1a1a"
       id="path2995-0"
       sodipodi:cx="35.433071"
       sodipodi:cy="637.79529"
       sodipodi:rx="7.0866141"
       sodipodi:ry="7.0866141"
       d="m 42.519685,637.79529 a 7.0866141,7.0866141 0 1 1 -14.173228,0 7.0866141,7.0866141 0 1 1 14.173228,0 z" />
    <path
       style="fill:none;stroke:#000000;stroke-width:1px;stroke-linecap:butt;stroke-linejoin:miter;stroke-opacity:1"
       d="m 428.74015,737.00784 0,-35.43309"
       id="path2991-9"
       inkscape:connector-curvature="0" />
    <path
       style="fill:none;stroke:#000000;stroke-width:1px;stroke-linecap:butt;stroke-linejoin:miter;stroke-opacity:1"
       d="m 411.02362,719.29129 35.43307,0"
       id="path2993-48"
       inkscape:connector-curvature="0" />
    <path
       transform="translate(393.30708,-145.27565)"
       sodipodi:type="arc"
       style="fill:#ffffff;fill-opacity:1;stroke:#1a1a1a"
       id="path2995-8"
       sodipodi:cx="35.433071"
       sodipodi:cy="637.79529"
       sodipodi:rx="7.0866141"
       sodipodi:ry="7.0866141"
       d="m 42.519685,637.79529 a 7.0866141,7.0866141 0 1 1 -14.173228,0 7.0866141,7.0866141 0 1 1 14.173228,0 z" />
    <path
       style="fill:none;stroke:#000000;stroke-width:1px;stroke-linecap:butt;stroke-linejoin:miter;stroke-opacity:1"
       d="m 428.74015,510.23616 0,-35.43308"
       id="path2991-2"
       inkscape:connector-curvature="0" />
    <path
       style="fill:none;stroke:#000000;stroke-width:1px;stroke-linecap:butt;stroke-linejoin:miter;stroke-opacity:1"
       d="m 411.02362,492.51962 35.43307,0"
       id="path2993-45"
       inkscape:connector-curvature="0" />
    <path
       transform="translate(386.22047,53.149569)"
       sodipodi:type="arc"
       style="fill:#ffffff;fill-opacity:1;stroke:#1a1a1a"
       id="path2995-0-5"
       sodipodi:cx="35.433071"
       sodipodi:cy="637.79529"
       sodipodi:rx="7.0866141"
       sodipodi:ry="7.0866141"
       d="m 42.519685,637.79529 a 7.0866141,7.0866141 0 1 1 -14.173228,0 7.0866141,7.0866141 0 1 1 14.173228,0 z" />
    <path
       style="fill:none;stroke:#000000;stroke-width:1px;stroke-linecap:butt;stroke-linejoin:miter;stroke-opacity:1"
       d="m 421.65354,708.66139 0,-35.43309"
       id="path2991-9-1"
       inkscape:connector-curvature="0" />
    <path
       style="fill:none;stroke:#000000;stroke-width:1px;stroke-linecap:butt;stroke-linejoin:miter;stroke-opacity:1"
       d="m 403.93701,690.94484 35.43307,0"
       id="path2993-48-7"
       inkscape:connector-curvature="0" />
    <path
       transform="translate(386.22047,-106.29925)"
       sodipodi:type="arc"
       style="fill:#ffffff;fill-opacity:1;stroke:#1a1a1a"
       id="path2995-0-1"
       sodipodi:cx="35.433071"
       sodipodi:cy="637.79529"
       sodipodi:rx="7.0866141"
       sodipodi:ry="7.0866141"
       d="m 42.519685,637.79529 a 7.0866141,7.0866141 0 1 1 -14.173228,0 7.0866141,7.0866141 0 1 1 14.173228,0 z" />
    <path
       style="fill:none;stroke:#000000;stroke-width:1px;stroke-linecap:butt;stroke-linejoin:miter;stroke-opacity:1"
       d="m 421.65354,549.21257 0,-35.43309"
       id="path2991-9-15"
       inkscape:connector-curvature="0" />
    <path
       style="fill:none;stroke:#000000;stroke-width:1px;stroke-linecap:butt;stroke-linejoin:miter;stroke-opacity:1"
       d="m 403.93701,531.49602 35.43307,0"
       id="path2993-48-2"
       inkscape:connector-curvature="0" />
    <path
       transform="translate(336.61417,-28.346494)"
       sodipodi:type="arc"
       style="fill:#ffffff;fill-opacity:1;stroke:#1a1a1a"
       id="path2995-0-9"
       sodipodi:cx="35.433071"
       sodipodi:cy="637.79529"
       sodipodi:rx="7.0866141"
       sodipodi:ry="7.0866141"
       d="m 42.519685,637.79529 a 7.0866141,7.0866141 0 1 1 -14.173228,0 7.0866141,7.0866141 0 1 1 14.173228,0 z" />
    <path
       style="fill:none;stroke:#000000;stroke-width:1px;stroke-linecap:butt;stroke-linejoin:miter;stroke-opacity:1"
       d="m 372.04724,627.16529 0,-35.43305"
       id="path2991-9-8"
       inkscape:connector-curvature="0" />
    <path
       style="fill:none;stroke:#000000;stroke-width:1px;stroke-linecap:butt;stroke-linejoin:miter;stroke-opacity:1"
       d="m 354.33071,609.44879 35.43307,0"
       id="path2993-48-8"
       inkscape:connector-curvature="0" />
    <path
       sodipodi:type="arc"
       style="fill:#ffffff;fill-opacity:1;stroke:#1a1a1a"
       id="path2995-17"
       sodipodi:cx="35.433071"
       sodipodi:cy="637.79529"
       sodipodi:rx="7.0866141"
       sodipodi:ry="7.0866141"
       d="m 42.519685,637.79529 a 7.0866141,7.0866141 0 1 1 -14.173228,0 7.0866141,7.0866141 0 1 1 14.173228,0 z"
       transform="translate(49.606299,325.98421)" />
    <path
       style="fill:none;stroke:#000000;stroke-width:1px;stroke-linecap:butt;stroke-linejoin:miter;stroke-opacity:1"
       d="m 85.039369,981.49602 0,-35.43308"
       id="path2991-4"
       inkscape:connector-curvature="0" />
    <path
       style="fill:none;stroke:#000000;stroke-width:1px;stroke-linecap:butt;stroke-linejoin:miter;stroke-opacity:1"
       d="m 67.322839,963.77948 35.433071,0"
       id="path2993-0"
       inkscape:connector-curvature="0" />
    <path
       transform="translate(393.30708,325.98423)"
       sodipodi:type="arc"
       style="fill:#ffffff;fill-opacity:1;stroke:#1a1a1a"
       id="path2995-0-94"
       sodipodi:cx="35.433071"
       sodipodi:cy="637.79529"
       sodipodi:rx="7.0866141"
       sodipodi:ry="7.0866141"
       d="m 42.519685,637.79529 a 7.0866141,7.0866141 0 1 1 -14.173228,0 7.0866141,7.0866141 0 1 1 14.173228,0 z" />
    <path
       style="fill:none;stroke:#000000;stroke-width:1px;stroke-linecap:butt;stroke-linejoin:miter;stroke-opacity:1"
       d="m 428.74015,981.49605 0,-35.43309"
       id="path2991-9-88"
       inkscape:connector-curvature="0" />
    <path
       style="fill:none;stroke:#000000;stroke-width:1px;stroke-linecap:butt;stroke-linejoin:miter;stroke-opacity:1"
       d="m 411.02362,963.7795 35.43307,0"
       id="path2993-48-24"
       inkscape:connector-curvature="0" />
    <path
       transform="translate(56.692911,-180.70869)"
       sodipodi:type="arc"
       style="fill:#ffffff;fill-opacity:1;stroke:#1a1a1a"
       id="path2995-1-5"
       sodipodi:cx="35.433071"
       sodipodi:cy="637.79529"
       sodipodi:rx="7.0866141"
       sodipodi:ry="7.0866141"
       d="m 42.519685,637.79529 a 7.0866141,7.0866141 0 1 1 -14.173228,0 7.0866141,7.0866141 0 1 1 14.173228,0 z" />
    <path
       style="fill:none;stroke:#000000;stroke-width:1px;stroke-linecap:butt;stroke-linejoin:miter;stroke-opacity:1"
       d="m 92.125978,474.80312 0,-35.43308"
       id="path2991-7-5"
       inkscape:connector-curvature="0" />
    <path
       style="fill:none;stroke:#000000;stroke-width:1px;stroke-linecap:butt;stroke-linejoin:miter;stroke-opacity:1"
       d="m 74.409446,457.08658 35.433074,0"
       id="path2993-4-1"
       inkscape:connector-curvature="0" />
    <path
       transform="translate(386.22047,-180.70871)"
       sodipodi:type="arc"
       style="fill:#ffffff;fill-opacity:1;stroke:#1a1a1a"
       id="path2995-8-7"
       sodipodi:cx="35.433071"
       sodipodi:cy="637.79529"
       sodipodi:rx="7.0866141"
       sodipodi:ry="7.0866141"
       d="m 42.519685,637.79529 a 7.0866141,7.0866141 0 1 1 -14.173228,0 7.0866141,7.0866141 0 1 1 14.173228,0 z" />
    <path
       style="fill:none;stroke:#000000;stroke-width:1px;stroke-linecap:butt;stroke-linejoin:miter;stroke-opacity:1"
       d="m 421.65354,474.8031 0,-35.43308"
       id="path2991-2-1"
       inkscape:connector-curvature="0" />
    <path
       style="fill:none;stroke:#000000;stroke-width:1px;stroke-linecap:butt;stroke-linejoin:miter;stroke-opacity:1"
       d="m 403.93701,457.08656 35.43307,0"
       id="path2993-45-1"
       inkscape:connector-curvature="0" />
    <path
       transform="translate(106.29921,-28.346492)"
       sodipodi:type="arc"
       style="fill:#ffffff;fill-opacity:1;stroke:#1a1a1a"
       id="path2995-0-9-5"
       sodipodi:cx="35.433071"
       sodipodi:cy="637.79529"
       sodipodi:rx="7.0866141"
       sodipodi:ry="7.0866141"
       d="m 42.519685,637.79529 a 7.0866141,7.0866141 0 1 1 -14.173228,0 7.0866141,7.0866141 0 1 1 14.173228,0 z" />
    <path
       style="fill:none;stroke:#000000;stroke-width:1px;stroke-linecap:butt;stroke-linejoin:miter;stroke-opacity:1"
       d="m 141.73228,627.16529 0,-35.43305"
       id="path2991-9-8-2"
       inkscape:connector-curvature="0" />
    <path
       style="fill:none;stroke:#000000;stroke-width:1px;stroke-linecap:butt;stroke-linejoin:miter;stroke-opacity:1"
       d="m 124.01575,609.44879 35.43307,0"
       id="path2993-48-8-7"
       inkscape:connector-curvature="0" />
  </g>
</svg>
